<svg width="21" height="21" viewBox="0 0 21 21" fill="none" xmlns="http://www.w3.org/2000/svg">
<g id="Group">
<path id="Vector" d="M20.125 9.62501H11.375V0.874986C11.375 0.39174 10.9832 0 10.5 0C10.0168 0 9.62501 0.39174 9.62501 0.874986V9.62497H0.874986C0.39174 9.62501 0 10.0168 0 10.5C0 10.9832 0.39174 11.375 0.874986 11.375H9.62497V20.125C9.62497 20.6082 10.0167 21 10.5 21C10.9832 21 11.3749 20.6082 11.3749 20.125V11.375H20.1249C20.6082 11.375 20.9999 10.9832 20.9999 10.5C21 10.0168 20.6083 9.62501 20.125 9.62501Z" fill="white"/>
</g>
</svg>
